<?xml version="1.0" encoding="UTF-8"?>
<svg xmlns="http://www.w3.org/2000/svg" xmlns:xlink="http://www.w3.org/1999/xlink" width="96px" height="96px" viewBox="0 0 96 109" version="1.1">
<g id="surface1">
<path style=" stroke:none;fill-rule:nonzero;fill:rgb(91.372549%,79.215686%,19.607843%);fill-opacity:1;" d="M 8.039062 97.582031 L 0 0.183594 L 96 0.378906 L 87.5 97.582031 L 48.363281 108.816406 Z M 8.039062 97.582031 "/>
<path style=" stroke:none;fill-rule:nonzero;fill:rgb(100%,87.058824%,14.509804%);fill-opacity:1;" d="M 48.363281 99.410156 L 48.363281 9.457031 L 87.894531 9.589844 L 80.847656 90.070312 Z M 48.363281 99.410156 "/>
<path style=" stroke:none;fill-rule:nonzero;fill:rgb(100%,100%,100%);fill-opacity:1;" d="M 44.128906 20.140625 L 33.675781 20.140625 L 33.675781 80.007812 L 25.546875 78.472656 L 25.546875 70.414062 L 15.871094 68.878906 L 15.871094 86.917969 L 44.128906 94.210938 Z M 51.96875 20.140625 L 80.902344 20.140625 L 78.96875 31.613281 L 63.015625 31.613281 L 63.015625 50.445312 L 78.96875 50.445312 L 77.03125 88.453125 L 51.96875 94.210938 L 51.96875 82.3125 L 68.902344 76.554688 L 69.882812 60.820312 L 51.96875 63.390625 Z M 51.96875 20.140625 "/>
</g>
</svg>
