<?xml version="1.0" encoding="UTF-8"?>
<svg xmlns="http://www.w3.org/2000/svg" xmlns:xlink="http://www.w3.org/1999/xlink" width="96px" height="96px" viewBox="0 0 96 96" version="1.1">
<g id="surface1">
<path style=" stroke:none;fill-rule:nonzero;fill:rgb(91.372549%,79.215686%,19.607843%);fill-opacity:1;" d="M 12.804688 85.945312 L 5.726562 0.160156 L 90.273438 0.332031 L 82.789062 85.945312 L 48.320312 95.839844 Z M 12.804688 85.945312 "/>
<path style=" stroke:none;fill-rule:nonzero;fill:rgb(100%,87.058824%,14.509804%);fill-opacity:1;" d="M 48.320312 87.554688 L 48.320312 8.328125 L 83.136719 8.445312 L 76.929688 79.328125 Z M 48.320312 87.554688 "/>
<path style=" stroke:none;fill-rule:nonzero;fill:rgb(100%,100%,100%);fill-opacity:1;" d="M 44.589844 17.738281 L 35.382812 17.738281 L 35.382812 70.464844 L 28.226562 69.113281 L 28.226562 62.015625 L 19.703125 60.664062 L 19.703125 76.550781 L 44.589844 82.976562 Z M 51.496094 17.738281 L 76.976562 17.738281 L 75.273438 27.84375 L 61.226562 27.84375 L 61.226562 44.429688 L 75.273438 44.429688 L 73.570312 77.902344 L 51.496094 82.976562 L 51.496094 72.496094 L 66.410156 67.425781 L 67.273438 53.566406 L 51.496094 55.832031 Z M 51.496094 17.738281 "/>
</g>
</svg>
