<?xml version="1.0" encoding="UTF-8"?>
<svg xmlns="http://www.w3.org/2000/svg" xmlns:xlink="http://www.w3.org/1999/xlink" width="105px" height="96px" viewBox="0 0 105 96" version="1.1">
<g id="surface1">
<path style=" stroke:none;fill-rule:nonzero;fill:rgb(7.058824%,40%,66.27451%);fill-opacity:1;" d="M 13.519531 61.882812 C 13.609375 62.085938 13.710938 62.273438 13.820312 62.460938 C 13.871094 62.570312 13.941406 62.683594 14.003906 62.785156 C 14.105469 62.988281 14.214844 63.183594 14.320312 63.378906 L 14.929688 64.410156 C 15.042969 64.601562 15.152344 64.789062 15.28125 64.976562 C 15.496094 65.34375 15.75 65.703125 15.972656 66.070312 C 16.074219 66.222656 16.167969 66.375 16.28125 66.527344 C 16.710938 67.195312 17.097656 67.75 17.515625 68.289062 C 17.8125 68.691406 18.109375 69.085938 18.429688 69.480469 C 18.535156 69.628906 18.652344 69.777344 18.761719 69.925781 L 19.621094 70.972656 C 19.726562 71.09375 19.832031 71.234375 19.945312 71.359375 C 20.328125 71.820312 20.734375 72.261719 21.136719 72.714844 C 21.136719 72.722656 21.148438 72.730469 21.15625 72.742188 C 21.660156 73.375 22.203125 73.9375 22.796875 74.4375 L 22.8125 74.453125 C 23.121094 74.773438 23.433594 75.089844 23.765625 75.402344 L 24.160156 75.78125 C 24.59375 76.1875 25.027344 76.589844 25.480469 76.980469 C 25.488281 76.980469 25.492188 76.988281 25.5 76.992188 L 25.722656 77.1875 C 26.121094 77.535156 26.523438 77.878906 26.933594 78.199219 L 27.417969 78.609375 C 27.75 78.875 28.09375 79.125 28.433594 79.386719 L 28.964844 79.792969 C 29.324219 80.066406 29.710938 80.332031 30.082031 80.597656 C 30.21875 80.695312 30.355469 80.792969 30.496094 80.882812 L 30.609375 80.972656 L 31.703125 81.691406 L 32.171875 82.003906 C 32.746094 82.371094 33.316406 82.714844 33.882812 83.058594 C 34.046875 83.140625 34.210938 83.230469 34.363281 83.324219 C 34.785156 83.566406 35.222656 83.8125 35.644531 84.035156 C 35.878906 84.167969 36.121094 84.28125 36.363281 84.402344 C 36.65625 84.566406 36.960938 84.726562 37.273438 84.890625 C 37.359375 84.917969 37.429688 84.945312 37.5 84.984375 L 37.515625 84.96875 C 37.640625 85.027344 37.761719 85.089844 37.886719 85.152344 C 38.355469 85.386719 38.84375 85.609375 39.351562 85.828125 C 39.445312 85.867188 39.546875 85.90625 39.648438 85.960938 C 40.207031 86.207031 40.769531 86.441406 41.351562 86.667969 C 41.484375 86.707031 41.625 86.773438 41.761719 86.824219 C 42.285156 87.023438 42.828125 87.226562 43.367188 87.417969 L 43.5625 87.488281 C 44.15625 87.691406 44.746094 87.886719 45.355469 88.066406 C 45.496094 88.105469 45.640625 88.15625 45.789062 88.195312 C 46.40625 88.382812 47.007812 88.605469 47.636719 88.722656 C 87.691406 96 99.328125 64.722656 99.328125 64.722656 C 89.550781 77.414062 72.195312 80.761719 55.761719 77.035156 C 55.152344 76.894531 54.542969 76.699219 53.929688 76.519531 C 53.058594 76.273438 52.195312 76 51.34375 75.703125 L 51.714844 75.816406 L 51.472656 75.722656 C 50.941406 75.542969 50.429688 75.34375 49.914062 75.144531 C 49.785156 75.089844 49.65625 75.042969 49.527344 74.996094 L 49.484375 74.984375 C 48.910156 74.753906 48.351562 74.519531 47.800781 74.273438 C 47.679688 74.234375 47.578125 74.179688 47.457031 74.132812 C 46.800781 73.847656 46.152344 73.546875 45.507812 73.234375 L 46.042969 73.472656 C 45.90625 73.410156 45.765625 73.34375 45.632812 73.269531 C 45.265625 73.097656 44.898438 72.902344 44.539062 72.71875 C 44.265625 72.589844 43.996094 72.453125 43.734375 72.304688 L 43.8125 72.34375 C 43.371094 72.109375 42.929688 71.859375 42.484375 71.621094 C 42.351562 71.527344 42.199219 71.449219 42.046875 71.363281 C 41.386719 70.976562 40.734375 70.578125 40.089844 70.167969 L 40.335938 70.316406 C 40.171875 70.210938 40.011719 70.105469 39.851562 69.992188 L 39.875 70.007812 C 39.457031 69.75 39.046875 69.476562 38.644531 69.195312 C 38.511719 69.109375 38.390625 69.015625 38.253906 68.921875 C 37.835938 68.632812 37.421875 68.335938 37.015625 68.03125 L 37.109375 68.097656 C 36.945312 67.964844 36.769531 67.839844 36.59375 67.710938 C 36.25 67.441406 35.902344 67.183594 35.558594 66.902344 L 35.101562 66.535156 C 34.609375 66.144531 34.128906 65.742188 33.65625 65.328125 L 33.652344 65.324219 L 32.300781 64.09375 L 31.910156 63.726562 C 31.589844 63.402344 31.265625 63.09375 30.9375 62.773438 L 30.558594 62.382812 C 30.15625 61.984375 29.761719 61.574219 29.375 61.152344 L 29.351562 61.125 L 29.289062 61.070312 C 28.875 60.617188 28.46875 60.15625 28.066406 59.691406 C 27.960938 59.570312 27.863281 59.441406 27.753906 59.3125 L 26.871094 58.238281 C 26.472656 57.738281 26.082031 57.230469 25.699219 56.710938 L 25.542969 56.492188 C 16.429688 44.089844 13.128906 26.972656 20.425781 12.929688 L 13.984375 21.089844 C 5.699219 32.957031 6.722656 48.390625 13.058594 60.992188 C 13.203125 61.300781 13.363281 61.589844 13.519531 61.882812 Z M 13.519531 61.882812 "/>
<path style=" stroke:none;fill-rule:nonzero;fill:rgb(0%,0%,0%);fill-opacity:1;" d="M 41.425781 44.785156 L 41.382812 44.722656 L 41.347656 44.675781 Z M 41.425781 44.785156 "/>
<path style=" stroke:none;fill-rule:nonzero;fill:rgb(7.058824%,40%,66.27451%);fill-opacity:1;" d="M 45.785156 49.910156 L 46.132812 50.261719 C 46.578125 50.691406 47.035156 51.109375 47.5 51.527344 L 47.558594 51.578125 C 48.027344 51.992188 48.550781 52.425781 49.09375 52.847656 L 49.175781 52.910156 C 49.308594 53 49.421875 53.105469 49.550781 53.195312 C 50.097656 53.617188 50.644531 54.019531 51.21875 54.421875 L 51.277344 54.457031 C 51.519531 54.632812 51.777344 54.792969 52.050781 54.964844 C 52.160156 55.035156 52.28125 55.128906 52.398438 55.199219 C 52.8125 55.464844 53.21875 55.710938 53.636719 55.964844 C 53.703125 55.992188 53.761719 56.023438 53.824219 56.050781 C 54.175781 56.265625 54.554688 56.472656 54.921875 56.660156 C 55.050781 56.738281 55.175781 56.796875 55.308594 56.871094 C 55.570312 57 55.828125 57.136719 56.078125 57.269531 L 56.203125 57.324219 C 56.726562 57.582031 57.265625 57.824219 57.792969 58.0625 C 57.925781 58.113281 58.039062 58.15625 58.152344 58.210938 C 58.582031 58.398438 59.023438 58.578125 59.457031 58.742188 C 59.652344 58.808594 59.835938 58.886719 60.019531 58.945312 C 60.417969 59.09375 60.832031 59.230469 61.226562 59.367188 L 61.773438 59.542969 C 62.34375 59.71875 62.917969 59.949219 63.523438 60.042969 C 94.453125 65.144531 101.613281 41.410156 101.613281 41.410156 C 95.167969 50.65625 82.695312 55.0625 69.402344 51.621094 C 68.738281 51.453125 68.082031 51.265625 67.429688 51.054688 L 67.652344 51.117188 C 67.464844 51.066406 67.300781 51.007812 67.121094 50.953125 C 66.71875 50.8125 66.300781 50.675781 65.90625 50.53125 L 65.34375 50.320312 C 64.90625 50.144531 64.464844 49.980469 64.039062 49.792969 C 63.90625 49.734375 63.785156 49.695312 63.683594 49.636719 C 63.136719 49.390625 62.589844 49.148438 62.054688 48.890625 L 61.25 48.472656 L 60.785156 48.238281 C 60.429688 48.050781 60.097656 47.855469 59.753906 47.65625 C 59.664062 47.613281 59.582031 47.566406 59.5 47.515625 L 59.511719 47.519531 C 59.097656 47.261719 58.667969 47.011719 58.273438 46.75 C 58.140625 46.675781 58.019531 46.585938 57.894531 46.507812 L 57.082031 45.980469 C 56.519531 45.589844 55.972656 45.171875 55.414062 44.765625 C 55.289062 44.652344 55.167969 44.558594 55.046875 44.457031 C 49.203125 39.878906 44.59375 33.617188 42.40625 26.527344 C 40.101562 19.160156 40.609375 10.894531 44.589844 4.191406 L 39.699219 11.09375 C 33.6875 19.691406 34.027344 31.179688 38.707031 40.269531 C 39.5625 41.949219 40.425781 43.367188 41.382812 44.71875 C 42.269531 45.992188 43.253906 47.484375 44.4375 48.507812 C 44.859375 48.988281 45.3125 49.445312 45.785156 49.910156 Z M 45.785156 49.910156 "/>
<path style=" stroke:none;fill-rule:nonzero;fill:rgb(0%,0%,0%);fill-opacity:1;" d="M 17.535156 68.3125 L 17.519531 68.289062 L 17.492188 68.253906 Z M 33.746094 65.40625 L 33.785156 65.433594 L 33.792969 65.445312 Z M 33.746094 65.40625 "/>
<path style=" stroke:none;fill-rule:nonzero;fill:rgb(7.058824%,40%,66.27451%);fill-opacity:1;" d="M 61.320312 3.621094 C 57.777344 8.800781 57.4375 15.238281 59.878906 20.953125 C 62.472656 27.019531 67.769531 31.785156 73.945312 34.042969 C 74.199219 34.140625 74.445312 34.222656 74.707031 34.316406 L 75.050781 34.421875 C 75.40625 34.535156 75.769531 34.667969 76.140625 34.75 C 93.222656 38.035156 97.847656 26.007812 99.089844 24.238281 C 95.023438 30.058594 88.203125 31.457031 79.835938 29.429688 C 79.109375 29.253906 78.394531 29.03125 77.691406 28.765625 L 77.820312 28.808594 C 76.949219 28.507812 76.09375 28.15625 75.261719 27.753906 L 75.410156 27.820312 C 73.8125 27.039062 72.441406 26.195312 71.164062 25.226562 C 63.6875 19.566406 59.0625 8.78125 63.945312 0 Z M 61.320312 3.621094 "/>
</g>
</svg>
